<svg width="183" height="38" viewBox="0 0 183 38" fill="none" xmlns="http://www.w3.org/2000/svg">
<path d="M0.875 19.25C0.875 17.5333 1.25833 16 2.025 14.65C2.80833 13.2833 3.86667 12.225 5.2 11.475C6.55 10.7083 8.05833 10.325 9.725 10.325C11.675 10.325 13.3833 10.825 14.85 11.825C16.3167 12.825 17.3417 14.2083 17.925 15.975H13.9C13.5 15.1417 12.9333 14.5167 12.2 14.1C11.4833 13.6833 10.65 13.475 9.7 13.475C8.68333 13.475 7.775 13.7167 6.975 14.2C6.19167 14.6667 5.575 15.3333 5.125 16.2C4.69167 17.0667 4.475 18.0833 4.475 19.25C4.475 20.4 4.69167 21.4167 5.125 22.3C5.575 23.1667 6.19167 23.8417 6.975 24.325C7.775 24.7917 8.68333 25.025 9.7 25.025C10.65 25.025 11.4833 24.8167 12.2 24.4C12.9333 23.9667 13.5 23.3333 13.9 22.5H17.925C17.3417 24.2833 16.3167 25.675 14.85 26.675C13.4 27.6583 11.6917 28.15 9.725 28.15C8.05833 28.15 6.55 27.775 5.2 27.025C3.86667 26.2583 2.80833 25.2 2.025 23.85C1.25833 22.5 0.875 20.9667 0.875 19.25ZM27.5145 28.175C25.8811 28.175 24.3811 27.7917 23.0145 27.025C21.6478 26.2583 20.5645 25.2 19.7645 23.85C18.9645 22.4833 18.5645 20.9417 18.5645 19.225C18.5645 17.525 18.9645 16 19.7645 14.65C20.5645 13.2833 21.6478 12.2167 23.0145 11.45C24.3811 10.6833 25.8811 10.3 27.5145 10.3C29.1645 10.3 30.6645 10.6833 32.0145 11.45C33.3811 12.2167 34.4561 13.2833 35.2395 14.65C36.0395 16 36.4395 17.525 36.4395 19.225C36.4395 20.9417 36.0395 22.4833 35.2395 23.85C34.4561 25.2 33.3811 26.2583 32.0145 27.025C30.6478 27.7917 29.1478 28.175 27.5145 28.175ZM27.5145 25.05C28.5645 25.05 29.4895 24.8167 30.2895 24.35C31.0895 23.8667 31.7145 23.1833 32.1645 22.3C32.6145 21.4167 32.8395 20.3917 32.8395 19.225C32.8395 18.0583 32.6145 17.0417 32.1645 16.175C31.7145 15.2917 31.0895 14.6167 30.2895 14.15C29.4895 13.6833 28.5645 13.45 27.5145 13.45C26.4645 13.45 25.5311 13.6833 24.7145 14.15C23.9145 14.6167 23.2895 15.2917 22.8395 16.175C22.3895 17.0417 22.1645 18.0583 22.1645 19.225C22.1645 20.3917 22.3895 21.4167 22.8395 22.3C23.2895 23.1833 23.9145 23.8667 24.7145 24.35C25.5311 24.8167 26.4645 25.05 27.5145 25.05ZM52.4684 28H48.9684L41.0434 16.025V28H37.5434V10.525H41.0434L48.9684 22.525V10.525H52.4684V28ZM60.4521 28.175C59.2355 28.175 58.1355 27.9667 57.1521 27.55C56.1855 27.1333 55.4188 26.5333 54.8521 25.75C54.2855 24.9667 53.9938 24.0417 53.9771 22.975H57.7271C57.7771 23.6917 58.0271 24.2583 58.4771 24.675C58.9438 25.0917 59.5771 25.3 60.3771 25.3C61.1938 25.3 61.8355 25.1083 62.3021 24.725C62.7688 24.325 63.0021 23.8083 63.0021 23.175C63.0021 22.6583 62.8438 22.2333 62.5271 21.9C62.2105 21.5667 61.8105 21.3083 61.3271 21.125C60.8605 20.925 60.2105 20.7083 59.3771 20.475C58.2438 20.1417 57.3188 19.8167 56.6021 19.5C55.9021 19.1667 55.2938 18.675 54.7771 18.025C54.2771 17.3583 54.0271 16.475 54.0271 15.375C54.0271 14.3417 54.2855 13.4417 54.8021 12.675C55.3188 11.9083 56.0438 11.325 56.9771 10.925C57.9105 10.5083 58.9771 10.3 60.1771 10.3C61.9771 10.3 63.4355 10.7417 64.5521 11.625C65.6855 12.4917 66.3105 13.7083 66.4271 15.275H62.5771C62.5438 14.675 62.2855 14.1833 61.8021 13.8C61.3355 13.4 60.7105 13.2 59.9271 13.2C59.2438 13.2 58.6938 13.375 58.2771 13.725C57.8771 14.075 57.6771 14.5833 57.6771 15.25C57.6771 15.7167 57.8271 16.1083 58.1271 16.425C58.4438 16.725 58.8271 16.975 59.2771 17.175C59.7438 17.3583 60.3938 17.575 61.2271 17.825C62.3605 18.1583 63.2855 18.4917 64.0021 18.825C64.7188 19.1583 65.3355 19.6583 65.8521 20.325C66.3688 20.9917 66.6271 21.8667 66.6271 22.95C66.6271 23.8833 66.3855 24.75 65.9021 25.55C65.4188 26.35 64.7105 26.9917 63.7771 27.475C62.8438 27.9417 61.7355 28.175 60.4521 28.175ZM80.0365 10.55V13.375H75.3865V28H71.8865V13.375H67.2365V10.55H80.0365ZM90.0902 28L86.2402 21.2H84.5902V28H81.0902V10.55H87.6402C88.9902 10.55 90.1402 10.7917 91.0902 11.275C92.0402 11.7417 92.7486 12.3833 93.2152 13.2C93.6986 14 93.9402 14.9 93.9402 15.9C93.9402 17.05 93.6069 18.0917 92.9402 19.025C92.2736 19.9417 91.2819 20.575 89.9652 20.925L94.1402 28H90.0902ZM84.5902 18.575H87.5152C88.4652 18.575 89.1736 18.35 89.6402 17.9C90.1069 17.4333 90.3402 16.7917 90.3402 15.975C90.3402 15.175 90.1069 14.5583 89.6402 14.125C89.1736 13.675 88.4652 13.45 87.5152 13.45H84.5902V18.575ZM99.0559 10.55V21.35C99.0559 22.5333 99.3642 23.4417 99.9809 24.075C100.598 24.6917 101.464 25 102.581 25C103.714 25 104.589 24.6917 105.206 24.075C105.823 23.4417 106.131 22.5333 106.131 21.35V10.55H109.656V21.325C109.656 22.8083 109.331 24.0667 108.681 25.1C108.048 26.1167 107.189 26.8833 106.106 27.4C105.039 27.9167 103.848 28.175 102.531 28.175C101.231 28.175 100.048 27.9167 98.9809 27.4C97.9309 26.8833 97.0975 26.1167 96.4809 25.1C95.8642 24.0667 95.5559 22.8083 95.5559 21.325V10.55H99.0559ZM110.688 19.25C110.688 17.5333 111.071 16 111.838 14.65C112.621 13.2833 113.679 12.225 115.013 11.475C116.363 10.7083 117.871 10.325 119.538 10.325C121.488 10.325 123.196 10.825 124.663 11.825C126.129 12.825 127.154 14.2083 127.738 15.975H123.713C123.313 15.1417 122.746 14.5167 122.013 14.1C121.296 13.6833 120.463 13.475 119.513 13.475C118.496 13.475 117.588 13.7167 116.788 14.2C116.004 14.6667 115.388 15.3333 114.938 16.2C114.504 17.0667 114.288 18.0833 114.288 19.25C114.288 20.4 114.504 21.4167 114.938 22.3C115.388 23.1667 116.004 23.8417 116.788 24.325C117.588 24.7917 118.496 25.025 119.513 25.025C120.463 25.025 121.296 24.8167 122.013 24.4C122.746 23.9667 123.313 23.3333 123.713 22.5H127.738C127.154 24.2833 126.129 25.675 124.663 26.675C123.213 27.6583 121.504 28.15 119.538 28.15C117.871 28.15 116.363 27.775 115.013 27.025C113.679 26.2583 112.621 25.2 111.838 23.85C111.071 22.5 110.688 20.9667 110.688 19.25ZM141.102 10.55V13.375H136.452V28H132.952V13.375H128.302V10.55H141.102ZM145.656 10.55V28H142.156V10.55H145.656ZM155.714 28.175C154.08 28.175 152.58 27.7917 151.214 27.025C149.847 26.2583 148.764 25.2 147.964 23.85C147.164 22.4833 146.764 20.9417 146.764 19.225C146.764 17.525 147.164 16 147.964 14.65C148.764 13.2833 149.847 12.2167 151.214 11.45C152.58 10.6833 154.08 10.3 155.714 10.3C157.364 10.3 158.864 10.6833 160.214 11.45C161.58 12.2167 162.655 13.2833 163.439 14.65C164.239 16 164.639 17.525 164.639 19.225C164.639 20.9417 164.239 22.4833 163.439 23.85C162.655 25.2 161.58 26.2583 160.214 27.025C158.847 27.7917 157.347 28.175 155.714 28.175ZM155.714 25.05C156.764 25.05 157.689 24.8167 158.489 24.35C159.289 23.8667 159.914 23.1833 160.364 22.3C160.814 21.4167 161.039 20.3917 161.039 19.225C161.039 18.0583 160.814 17.0417 160.364 16.175C159.914 15.2917 159.289 14.6167 158.489 14.15C157.689 13.6833 156.764 13.45 155.714 13.45C154.664 13.45 153.73 13.6833 152.914 14.15C152.114 14.6167 151.489 15.2917 151.039 16.175C150.589 17.0417 150.364 18.0583 150.364 19.225C150.364 20.3917 150.589 21.4167 151.039 22.3C151.489 23.1833 152.114 23.8667 152.914 24.35C153.73 24.8167 154.664 25.05 155.714 25.05ZM180.668 28H177.168L169.243 16.025V28H165.743V10.525H169.243L177.168 22.525V10.525H180.668V28Z" fill="#18A7B9"/>
</svg>
